# xmcd
#
# Track frame offsets:
#  150
#  14928
#  26181
#  45159
#  60687
#  75540
#  88743
#  104571
#  118449
#  130902
#  147180
#  160158
#
# Disc length: 2354 seconds
#
# Revision: 0
# Processed by: cddbd v1.4PL0 Copyright (c) Steve Scherf et al.
# Submitted via: AltoMP3_Maker 3.0
#
DISCID=a809300c
DTITLE=Duo Suzanne and Claude - Mon coeur fait ...
DYEAR=1900
DGENRE=
TTITLE0=Mon coeur fait ...
TTITLE1=Youpi! Youpi! dy
TTITLE2=La petite Mexicaine
TTITLE3=Sur un bateau de guerre
TTITLE4=Je souffre autant que toi
TTITLE5=Dans ce miroir
TTITLE6=Gout a l'amour
TTITLE7=Le wrap du wrap Acadien
TTITLE8=Que Dieu nous pardonne
TTITLE9=Non n'essaie pas
TTITLE10=Car je ne sais pas
TTITLE11=Cupidon
EXTD=
EXTT0=
EXTT1=
EXTT2=
EXTT3=
EXTT4=
EXTT5=
EXTT6=
EXTT7=
EXTT8=
EXTT9=
EXTT10=
EXTT11=
PLAYORDER=
